<?xml version="1.0" standalone="no"?>
<!DOCTYPE svg PUBLIC "-//W3C//DTD SVG 20010904//EN"
 "http://www.w3.org/TR/2001/REC-SVG-20010904/DTD/svg10.dtd">
<svg version="1.0" xmlns="http://www.w3.org/2000/svg"
 width="500.000000pt" height="500.000000pt" viewBox="0 0 500.000000 500.000000"
 preserveAspectRatio="xMidYMid meet">
<metadata>
Created by potrace 1.11, written by Peter Selinger 2001-2013
</metadata>
<g transform="translate(0.000000,500.000000) scale(0.100000,-0.100000)"
fill="#000000" stroke="none">
<path d="M3590 3990 l0 -950 220 0 220 0 2 283 3 283 264 -283 263 -283 219 0
219 0 0 48 -1 47 -309 319 c-171 176 -310 323 -310 327 0 4 140 139 310 299
193 182 310 300 310 311 0 18 -12 19 -232 19 l-233 0 -252 -252 -253 -253 0
518 0 517 -220 0 -220 0 0 -950z"/>
<path d="M320 3950 l0 -910 650 0 650 0 0 175 0 175 -415 0 -415 0 0 735 0
735 -235 0 -235 0 0 -910z"/>
<path d="M2425 4434 c-273 -40 -458 -159 -553 -355 -53 -107 -71 -178 -79
-305 -22 -371 154 -640 482 -735 l60 -18 -67 0 -68 -1 0 -155 0 -155 -85 0
-85 0 0 -125 0 -125 84 0 84 0 4 -297 c4 -256 7 -305 22 -350 36 -101 111
-160 231 -182 32 -6 141 -11 242 -11 l183 0 0 125 0 125 -119 0 c-65 0 -132 5
-150 11 -57 20 -61 40 -61 324 l0 255 180 0 180 0 0 125 0 125 -180 0 -180 0
0 143 0 144 113 6 c129 8 260 29 382 61 l85 23 0 -119 0 -118 175 0 175 0 0
145 0 145 -140 0 -140 0 0 155 0 155 -57 -29 c-164 -82 -341 -125 -518 -126
-149 0 -205 14 -279 71 -48 36 -100 127 -112 197 l-6 37 517 0 518 0 -6 138
c-7 157 -24 238 -72 337 -81 166 -234 290 -420 340 -59 15 -280 28 -340 19z
m251 -312 c79 -41 144 -143 144 -229 l0 -23 -290 0 c-328 0 -306 -7 -275 81
33 91 97 156 187 185 62 20 182 13 234 -14z"/>
<path d="M4202 2729 c-302 -51 -478 -284 -459 -609 13 -219 109 -374 283 -460
101 -49 180 -64 349 -64 161 0 263 15 406 60 l79 25 0 134 0 134 -73 -34
c-138 -64 -238 -87 -372 -89 -141 -1 -180 9 -241 66 -40 37 -84 122 -84 163 0
13 57 15 411 15 l412 0 -6 118 c-9 184 -51 291 -157 398 -123 124 -333 179
-548 143z m233 -238 c51 -23 101 -79 114 -128 22 -78 39 -73 -223 -73 l-234 0
10 38 c15 54 32 83 71 120 61 59 183 79 262 43z"/>
<path d="M3130 2165 l0 -545 175 0 175 0 0 545 0 545 -175 0 -175 0 0 -545z"/>
<path d="M80 1210 l0 -732 403 4 c372 4 408 6 479 26 147 40 235 107 284 215
26 56 28 73 29 172 0 101 -2 115 -29 173 -33 71 -114 153 -171 172 -41 14 -44
23 -11 38 46 21 103 82 127 135 33 72 33 215 0 298 -25 66 -97 139 -164 168
-113 48 -162 53 -564 58 l-383 5 0 -732z m680 458 c109 -55 109 -221 0 -275
-39 -20 -59 -23 -172 -23 l-128 0 0 160 0 160 128 0 c113 0 133 -3 172 -22z
m16 -563 c28 -8 60 -25 72 -37 73 -79 66 -238 -14 -295 -47 -33 -101 -43 -241
-43 l-133 0 0 195 0 195 133 0 c89 0 150 -5 183 -15z"/>
<path d="M1950 1585 c-205 -39 -356 -173 -416 -370 -26 -84 -26 -296 0 -380
62 -204 212 -333 431 -372 104 -18 256 -13 348 12 186 49 318 176 373 360 26
84 26 296 0 380 -55 183 -186 310 -373 361 -82 22 -271 27 -363 9z m233 -246
c46 -13 102 -60 126 -108 54 -106 54 -306 0 -412 -80 -158 -318 -158 -398 0
-54 106 -54 307 -1 411 50 97 159 141 273 109z"/>
<path d="M3235 1586 c-303 -73 -452 -509 -289 -844 65 -135 179 -226 312 -252
143 -29 267 8 374 109 l71 66 -5 -93 c-9 -163 -69 -243 -208 -278 -120 -30
-301 -4 -432 62 l-48 24 0 -135 0 -134 53 -15 c122 -34 176 -41 342 -40 191 1
271 16 386 74 80 41 172 132 205 204 51 111 54 150 54 714 l0 522 -175 0 -175
0 0 -77 0 -77 -52 53 c-29 29 -71 63 -93 76 -85 50 -214 67 -320 41z m306
-248 c100 -34 159 -144 159 -298 0 -181 -78 -295 -210 -308 -100 -9 -180 38
-221 130 -20 45 -23 70 -23 168 -1 137 17 200 73 257 55 58 144 78 222 51z"/>
</g>
</svg>
